<?xml version="1.0" encoding="iso-8859-1"?>
<!-- Uploaded to: SVG Repo, www.svgrepo.com, Generator: SVG Repo Mixer Tools -->
<svg height="800px" width="800px" version="1.1" id="Layer_1" xmlns="http://www.w3.org/2000/svg" xmlns:xlink="http://www.w3.org/1999/xlink" 
	 viewBox="0 0 512 512" xml:space="preserve">
<path style="fill:#89603B;" d="M411.902,81.504L290.03,265.181l-71.065-107.103c-5.476-8.253-17.592-8.253-23.068,0L19.245,424.314
	c-5.336,8.04,0.43,18.785,10.08,18.785h462.376c6.681,0,12.097-5.416,12.097-12.097V189.8c0-2.977-0.878-5.887-2.524-8.367
	c-26.122-39.369-51.948-78.293-66.304-99.928C429.494,73.251,417.378,73.252,411.902,81.504z"/>
<path style="fill:#0069A3;" d="M411.902,81.504L290.03,265.181l-71.065-107.103c-5.476-8.253-17.592-8.253-23.068,0L19.245,424.314
	c-5.336,8.04,0.43,18.785,10.08,18.785h462.376c6.681,0,12.097-5.416,12.097-12.097V189.8c0-2.977-0.878-5.887-2.524-8.367
	c-26.122-39.369-51.948-78.293-66.304-99.928C429.494,73.251,417.378,73.252,411.902,81.504z"/>
<path style="opacity:0.15;enable-background:new    ;" d="M502.637,422.687H40.261c-6.988,0-11.936-5.636-12.109-11.798
	l-8.908,13.424c-5.335,8.04,0.43,18.785,10.08,18.785h462.376c6.681,0,12.097-5.416,12.097-12.097v-8.373
	C503.416,422.665,503.029,422.687,502.637,422.687z"/>
<g>
	<path style="fill:#8CCFDE;" d="M411.902,81.504l-65.354,98.497c22.025,14.643,48.458,23.182,76.889,23.182
		s54.864-8.539,76.889-23.182l-65.354-98.497C429.496,73.252,417.378,73.252,411.902,81.504z"/>
	<path style="fill:#8CCFDE;" d="M195.898,158.079l-37.958,57.206c14.178,9.426,31.19,14.929,49.492,14.929
		s35.314-5.503,49.492-14.929l-37.957-57.206C213.49,149.826,201.373,149.826,195.898,158.079z"/>
</g>
<circle style="fill:#F5DF5D;" cx="51.543" cy="112.251" r="43.347"/>
<path style="opacity:0.3;fill:#FFFFFF;enable-background:new    ;" d="M67.809,72.065c-12.964,2.101-22.864,13.342-22.864,26.899
	c0,15.053,12.203,27.257,27.256,27.257c9.438,0,17.753-4.798,22.646-12.086c0.027-0.627,0.048-1.256,0.048-1.889
	C94.895,94.059,83.689,78.498,67.809,72.065z"/>
<path style="opacity:0.15;enable-background:new    ;" d="M290.03,265.181l13.152,19.822c1.668,2.513,5.436,2.256,6.748-0.46
	l87.314-180.947L290.03,265.181z"/>
<path d="M508.109,176.896l-66.304-99.928c-4.095-6.171-10.962-9.856-18.368-9.856s-14.274,3.686-18.369,9.858l0.001-0.001
	L290.03,250.345l-64.23-96.802c-4.095-6.171-10.962-9.856-18.369-9.856c-7.406,0-14.274,3.684-18.369,9.857L12.412,419.779
	c-4.142,6.241-4.516,14.22-0.974,20.821c3.542,6.601,10.396,10.702,17.889,10.702h462.375c11.192,0,20.299-9.107,20.299-20.299
	V189.8C512,185.194,510.655,180.732,508.109,176.896z M418.737,86.039L418.737,86.039c1.51-2.276,3.789-2.522,4.699-2.522
	s3.189,0.246,4.699,2.522l60.672,91.44c-19.826,11.462-42.254,17.502-65.371,17.502c-23.116,0-45.545-6.039-65.371-17.502
	L418.737,86.039z M202.731,162.614c1.51-2.277,3.791-2.522,4.7-2.522s3.19,0.246,4.7,2.522l33.193,50.025
	c-11.636,6.147-24.584,9.374-37.894,9.374s-26.256-3.226-37.893-9.374L202.731,162.614z M495.595,431.002
	c0,2.147-1.748,3.894-3.894,3.894H29.326c-2.104,0-3.102-1.436-3.433-2.053c-0.331-0.618-0.976-2.242,0.187-3.994l134.352-202.486
	c14.362,7.899,30.448,12.054,46.999,12.054s32.638-4.155,46.999-12.054l28.765,43.352c1.52,2.291,4.085,3.667,6.834,3.667
	s5.314-1.377,6.834-3.667l52.12-78.55c22.535,13.237,48.097,20.219,74.453,20.219c25.461,0,50.193-6.495,72.159-18.871
	L495.595,431.002L495.595,431.002z M51.549,163.795c28.424,0,51.549-23.125,51.549-51.549S79.973,60.698,51.549,60.698
	S0,83.823,0,112.247S23.125,163.795,51.549,163.795z M51.549,77.102c19.378,0,35.144,15.765,35.144,35.144
	c0,19.378-15.766,35.144-35.144,35.144s-35.144-15.766-35.144-35.144S32.171,77.102,51.549,77.102z"/>
</svg>